<?xml version="1.0" encoding="utf-8"?>
<!-- Generator: Adobe Illustrator 15.1.0, SVG Export Plug-In  -->
<!DOCTYPE svg PUBLIC "-//W3C//DTD SVG 1.1//EN" "http://www.w3.org/Graphics/SVG/1.1/DTD/svg11.dtd" [
	<!ENTITY ns_flows "http://ns.adobe.com/Flows/1.0/">
]>
<svg version="1.1"
	 xmlns="http://www.w3.org/2000/svg" xmlns:xlink="http://www.w3.org/1999/xlink" xmlns:a="http://ns.adobe.com/AdobeSVGViewerExtensions/3.0/"
	 x="0px" y="0px" width="216px" height="216px" viewBox="0 0.5 216 216" overflow="visible" enable-background="new 0 0.5 216 216"
	 xml:space="preserve">
<defs>
</defs>
<rect id="svg_1_1_" fill="#E84141" width="216.377" height="216.596"/>
<path id="svg_5_1_" marker-mid="" marker-end="" marker-start="" fill="none" stroke="#FFFFFF" stroke-width="3" stroke-linejoin="round" d="
	M164.246,20.672H59.153c-6.434,0-11.671,5.032-12.325,11.458h9.989c6.863,0,12.456,5.742,12.456,12.788s-5.593,12.788-12.456,12.788
	h-10.12v6.388h10.12c6.875,0,12.468,5.741,12.468,12.8c0,7.059-5.592,12.794-12.468,12.794h-10.12v6.375h10.12
	c6.863,0,12.456,5.742,12.456,12.788c0,7.059-5.593,12.813-12.456,12.813h-10.12v6.355h10.12c6.863,0,12.456,5.742,12.456,12.801
	s-5.593,12.801-12.456,12.801h-10.12v6.374h10.114c6.875,0,12.468,5.735,12.468,12.794s-5.592,12.801-12.468,12.801H46.723
	c0.143,6.931,5.642,12.513,12.431,12.513h105.093c6.875,0,12.455-5.729,12.455-12.788V33.46
	C176.701,26.401,171.121,20.672,164.246,20.672z M166.581,65.429c0,3.529-2.784,6.394-6.228,6.394H96.52
	c-3.444,0-6.228-2.865-6.228-6.394V37.456c0-3.529,2.784-6.394,6.228-6.394h63.834c3.443,0,6.228,2.865,6.228,6.394V65.429z
	 M63.045,172.787c0-3.542-2.796-6.4-6.228-6.4h-20.24c-3.438,0-6.228,2.858-6.228,6.4c0,3.529,2.796,6.395,6.228,6.395h20.24
	C60.249,179.182,63.045,176.316,63.045,172.787z M36.578,51.305h20.247c3.431,0,6.221-2.864,6.221-6.387
	c0-3.548-2.79-6.394-6.221-6.394H36.578c-3.444,0-6.228,2.846-6.228,6.394C30.344,48.44,33.134,51.305,36.578,51.305z M36.578,83.28
	h20.24c3.444,0,6.228-2.864,6.228-6.394s-2.79-6.394-6.228-6.394h-20.24c-3.444,0-6.228,2.865-6.228,6.394
	S33.134,83.28,36.578,83.28z M36.578,115.25h20.24c3.431,0,6.228-2.865,6.228-6.401s-2.79-6.387-6.228-6.387h-20.24
	c-3.444,0-6.234,2.852-6.234,6.387S33.134,115.25,36.578,115.25z M30.35,140.812c0,3.535,2.777,6.406,6.228,6.406h20.24
	c3.431,0,6.228-2.871,6.228-6.406c0-3.529-2.79-6.395-6.228-6.395h-20.24C33.127,134.418,30.35,137.283,30.35,140.812z"/>
<text transform="matrix(0.9569 0 0 1 95.6929 57.0659)" fill="#FFFFFF" font-family="'MyriadPro-Regular'" font-size="23.8886">devlog</text>
</svg>
